<?xml version="1.0" standalone="no"?>
<!DOCTYPE svg PUBLIC "-//W3C//DTD SVG 20010904//EN"
 "http://www.w3.org/TR/2001/REC-SVG-20010904/DTD/svg10.dtd">
<svg version="1.0" xmlns="http://www.w3.org/2000/svg"
 width="1280.000000pt" height="1237.000000pt" viewBox="0 0 1280.000000 1237.000000"
 preserveAspectRatio="xMidYMid meet">
<metadata>
Created by potrace 1.15, written by Peter Selinger 2001-2017
</metadata>
<g transform="translate(0.000000,1237.000000) scale(0.100000,-0.100000)"
fill="#000000" stroke="white" stroke-width="10">
<path d="M 265.92 739.32 c -2.7 -4.14 -6.9 -13.32 -9.42 -20.52 l -2.22 -6.3 l 0.36 -9.48 c 0.24 -5.22 0.66 -11.52 0.96 -13.92 c 0.3 -2.46 0.9 -9.96 1.26 -16.62 c 0.84 -14.94 0.3 -20.22 -2.7 -27.18 c -1.14 -2.64 -3.3 -7.8 -4.8 -11.46 c -3.24 -7.68 -4.14 -9.18 -11.4 -18.36 c -2.94 -3.72 -5.88 -7.74 -6.54 -8.88 c -0.66 -1.14 -2.1 -3.06 -3.18 -4.2 c -2.7 -2.88 -9.66 -13.5 -10.44 -15.9 c -0.36 -1.08 -1.2 -2.46 -1.92 -3.06 c -2.16 -1.98 -9.06 -12.96 -10.98 -17.64 c -2.58 -6.06 -4.74 -10.26 -9.9 -19.2 c -2.34 -4.14 -4.98 -9.54 -5.76 -12 c -0.84 -2.46 -2.1 -5.52 -2.88 -6.9 c -0.84 -1.32 -1.68 -3.48 -1.92 -4.8 c -0.18 -1.32 -1.2 -4.02 -2.16 -5.94 c -1.02 -1.98 -2.22 -4.98 -2.7 -6.6 c -0.48 -1.68 -1.68 -4.86 -2.64 -7.02 c -2.7 -6.24 -3.42 -9.9 -5.28 -26.94 c -2.76 -24.66 -2.76 -24.48 -0.96 -38.4 c 2.22 -17.64 3.48 -21.78 9.66 -31.98 c 2.76 -4.62 5.04 -8.82 5.04 -9.42 c 0 -1.98 -6.66 -9.6 -8.4 -9.6 c -0.3 0 -0.96 -0.9 -1.44 -1.92 c -1.08 -2.58 -7.14 -8.46 -8.88 -8.64 c -0.78 -0.06 -1.56 -0.18 -1.86 -0.18 c -0.6 -0.06 -6 -8.34 -6.96 -10.74 c -1.02 -2.46 -2.22 -2.4 -3.72 0.18 c -0.9 1.44 -1.68 2.1 -2.7 2.1 c -1.62 0 -1.8 -0.84 -2.28 -9.6 c -0.18 -4.02 -0.84 -7.44 -2.1 -11.64 c -1.02 -3.24 -2.1 -8.1 -2.4 -10.8 c -0.6 -4.8 -1.2 -7.08 -5.16 -19.56 c -2.7 -8.58 -3.24 -12.06 -3.36 -21.9 c -0.06 -7.2 0.18 -9.24 1.5 -14.28 c 1.74 -6.9 6 -16.08 9.48 -20.82 c 1.38 -1.8 4.68 -5.58 7.38 -8.4 c 8.04 -8.4 9.9 -10.8 9.9 -12.66 c 0 -1.32 -0.36 -1.8 -1.56 -2.1 c -2.22 -0.54 -8.7 0.12 -14.64 1.62 c -3.18 0.78 -7.32 1.26 -11.1 1.32 c -7.14 0.12 -8.58 -0.48 -10.62 -4.86 c -1.26 -2.58 -1.62 -2.88 -4.08 -3.24 c -1.5 -0.24 -9.3 -0.42 -17.34 -0.3 l -14.64 0.12 l -1.02 -1.8 c -1.92 -3.48 -6.48 -4.5 -20.22 -4.5 c -11.7 0 -15.54 0.54 -32.28 4.62 c -19.38 4.68 -23.76 5.94 -29.58 8.4 c -3.84 1.62 -5.28 2.04 -6.06 1.56 c -1.74 -1.14 -1.14 -2.82 1.56 -4.08 c 1.44 -0.72 3.6 -2.22 4.8 -3.42 c 3.54 -3.3 9.3 -6.9 13.56 -8.46 c 2.16 -0.78 7.38 -3.48 11.58 -5.94 c 4.26 -2.52 14.22 -8.16 22.14 -12.66 c 7.92 -4.44 17.52 -9.9 21.24 -12.06 c 3.78 -2.16 7.2 -3.96 7.56 -3.96 c 0.36 0 2.88 -1.08 5.58 -2.4 c 5.64 -2.7 9.78 -4.08 19.38 -6.3 c 3.78 -0.9 9 -2.28 11.64 -3 c 11.1 -3.3 39.24 -10.02 50.1 -12 c 27.06 -4.92 39.54 -5.64 48.9 -2.94 c 3 0.84 8.76 2.34 12.9 3.24 c 4.14 0.96 12.54 3.48 18.66 5.58 c 6.12 2.16 13.68 4.62 16.74 5.46 c 3.06 0.9 7.2 2.46 9.18 3.42 c 1.92 1.02 9.54 3.84 16.86 6.36 c 20.58 7.02 23.1 8.04 29.28 12.54 c 15.42 11.16 15.24 11.04 18 11.04 c 3.06 0 9.3 -1.8 12.24 -3.54 c 2.88 -1.74 4.32 -1.62 4.8 0.3 c 1.02 4.02 -1.56 12.9 -4.68 16.26 c -0.72 0.72 -2.22 1.68 -3.42 2.04 c -1.2 0.36 -3.48 1.38 -5.1 2.16 c -1.62 0.84 -4.26 1.86 -5.82 2.34 c -4.2 1.26 -4.32 1.8 -4.08 18.72 l 0.24 14.28 l 2.22 4.5 c 1.62 3.24 4.08 6.48 9.06 11.94 c 7.14 7.92 10.74 10.5 16.62 12 c 1.5 0.36 4.32 1.38 6.3 2.22 c 3.54 1.62 3.78 1.62 22.8 2.04 c 10.56 0.3 20.04 0.6 21.12 0.78 c 3.06 0.42 6.12 -0.72 9.12 -3.48 c 1.5 -1.44 5.82 -4.14 9.54 -6.06 c 6.48 -3.3 6.9 -3.6 7.98 -6.24 c 0.72 -1.62 2.64 -4.08 4.68 -6.06 c 3.84 -3.6 5.94 -7.86 9.84 -19.8 c 1.86 -5.58 1.92 -5.94 1.86 -16.8 c 0 -13.02 -1.02 -18.66 -5.46 -31.8 c -5.28 -15.48 -10.68 -24.36 -19.26 -31.92 c -3.3 -2.88 -6.78 -5.58 -7.68 -5.88 c -1.56 -0.6 -1.38 -0.3 1.32 2.52 c 6.12 6.36 8.04 9 8.04 10.8 c 0 3.84 -3.3 2.22 -6.12 -3.06 c -0.72 -1.32 -2.04 -2.34 -4.2 -3.3 c -15.54 -6.9 -19.2 -8.76 -23.82 -12.18 c -2.76 -2.1 -5.1 -3.78 -5.22 -3.78 c -0.12 0 -1.32 0.96 -2.58 2.1 c -1.32 1.2 -2.46 1.92 -2.64 1.68 c -0.12 -0.24 -0.96 -2.64 -1.86 -5.28 c -3.24 -9.78 -5.76 -12.3 -12.3 -12.3 c -4.98 0 -11.52 1.38 -15 3.12 c -2.34 1.2 -3.18 2.28 -6.84 8.58 l -4.2 7.2 l 0.78 3.6 c 1.74 8.04 1.56 8.28 -2.7 4.74 c -2.4 -1.92 -2.64 -2.04 -3.12 -1.02 c -0.3 0.6 -0.36 6.18 -0.12 12.48 c 0.48 11.64 0.24 13.14 -1.68 11.94 c -1.32 -0.84 -2.34 -4.02 -3.54 -10.68 c -1.2 -6.9 -1.98 -8.58 -8.64 -17.76 c -7.86 -10.8 -9 -12.66 -9 -14.46 c 0 -2.1 -0.54 -2.46 -3 -1.74 c -1.86 0.54 -2.22 0.36 -5.28 -2.22 c -2.4 -2.04 -3.42 -2.58 -3.6 -1.98 c -0.18 0.42 -1.26 1.92 -2.46 3.24 c -1.26 1.38 -2.7 3.18 -3.24 4.14 c -1.02 1.56 -2.46 2.1 -3 1.2 c -0.18 -0.3 0.18 -3.42 0.84 -6.96 c 1.8 -10.68 1.74 -11.76 -1.02 -16.02 c -1.26 -2.04 -4.44 -5.7 -6.96 -8.22 c -4.92 -4.8 -5.76 -6.72 -3.48 -8.1 c 0.66 -0.42 1.2 -1.08 1.2 -1.38 c 0 -0.78 -7.62 -7.08 -10.26 -8.4 c -5.28 -2.76 -27.84 -12.6 -32.46 -14.22 c -4.44 -1.5 -5.64 -2.22 -7.62 -4.44 c -2.82 -3.24 -3.24 -5.04 -2.16 -9.6 c 1.14 -4.86 1.08 -6.9 -0.3 -10.44 c -0.66 -1.68 -1.2 -3.72 -1.2 -4.5 c 0 -2.16 1.98 -5.16 5.52 -8.16 c 7.26 -6.24 8.88 -6.66 8.88 -2.4 l 0 2.34 l 6.48 0.42 c 7.86 0.48 10.92 -0.12 12.72 -2.7 c 1.44 -1.98 4.08 -3.6 5.88 -3.6 c 1.74 0 2.76 1.62 2.82 4.32 c 0.06 1.92 0.36 2.58 1.5 3.18 c 2.04 1.08 6.96 1.74 7.44 1.02 c 0.48 -0.78 -5.88 -8.52 -9.6 -11.7 c -1.68 -1.38 -5.46 -4.5 -8.46 -6.9 c -4.62 -3.66 -5.76 -4.32 -7.02 -3.96 c -1.62 0.42 -3.6 2.46 -5.28 5.58 c -1.92 3.48 -4.68 1.74 -4.68 -2.82 c 0 -2.16 0.42 -3.36 1.8 -5.16 c 1.08 -1.44 1.68 -2.82 1.5 -3.42 c -0.66 -2.04 0.9 -5.7 3.96 -9.24 c 1.68 -1.98 3.72 -4.86 4.5 -6.42 c 0.78 -1.62 1.74 -2.88 2.04 -2.88 c 1.02 0 2.4 2.64 2.4 4.56 c 0 2.28 0.54 3.84 1.26 3.84 c 0.24 0 1.38 -0.78 2.52 -1.74 c 2.28 -2.04 2.94 -1.86 4.2 1.2 c 0.84 2.04 1.08 2.22 4.2 2.58 c 3.3 0.42 3.36 0.48 4.38 3.24 c 1.44 3.9 2.34 4.8 7.14 7.02 c 2.34 1.02 5.34 2.88 6.78 4.08 c 1.38 1.2 3.12 2.34 3.9 2.58 c 0.72 0.18 3.66 1.26 6.48 2.4 c 2.82 1.08 7.86 2.64 11.22 3.48 c 3.36 0.9 9.24 2.64 13.14 3.9 c 3.9 1.32 8.28 2.7 9.78 3.06 c 1.5 0.42 5.64 2.16 9.18 4.02 c 6.18 3.06 6.6 3.18 7.62 2.28 c 2.4 -2.16 7.44 -10.2 9.6 -15.3 c 2.7 -6.36 10.08 -20.7 14.16 -27.6 c 2.16 -3.6 4.08 -5.94 7.14 -8.52 c 4.98 -4.26 7.8 -5.82 8.76 -4.86 c 1.14 1.14 0 3 -4.02 6.48 c -2.1 1.92 -4.32 4.26 -4.8 5.34 c -0.54 1.02 -2.04 3.12 -3.36 4.68 c -3.24 3.96 -3.96 6 -5.58 15.78 c -0.78 4.68 -1.98 10.14 -2.58 12.06 c -1.32 3.9 -2.52 10.38 -2.52 13.32 c 0 2.52 1.08 2.46 3.66 -0.24 c 3 -3.18 7.44 -6.24 8.88 -6.24 c 0.78 0 1.56 0.6 1.98 1.56 c 0.6 1.32 0.36 2.76 -1.74 9.9 c -1.32 4.56 -2.22 8.34 -2.04 8.34 c 0.24 0 2.28 -0.78 4.56 -1.8 c 5.34 -2.28 7.32 -2.34 8.1 -0.3 c 1.2 3.24 -0.96 8.88 -5.64 15 c -2.46 3.12 -2.64 3.6 -1.74 3.96 c 0.6 0.18 5.7 0.54 11.28 0.72 c 16.74 0.6 28.32 2.82 42.9 8.04 c 13.02 4.68 16.8 7.02 21.9 13.68 c 0.66 0.9 2.1 1.8 3.3 2.04 c 1.56 0.3 2.16 0.78 2.28 1.74 c 0.12 0.72 0.96 1.92 1.92 2.64 c 1.02 0.78 2.58 1.98 3.6 2.76 c 0.96 0.78 2.28 2.58 2.94 4.02 c 0.96 2.16 1.74 2.88 4.44 4.2 c 2.52 1.14 3.84 2.28 5.58 4.86 c 1.26 1.8 3.42 4.2 4.8 5.34 c 1.98 1.62 2.58 2.58 2.88 4.62 c 0.3 1.98 1.02 3.12 3.3 5.22 c 1.62 1.56 3.12 3.48 3.3 4.38 c 0.24 1.14 1.14 2.04 2.82 2.88 c 1.98 1.02 3.6 3.06 9.42 11.88 c 11.22 16.86 16.5 28.86 21.12 47.82 c 1.02 4.32 2.1 8.76 2.4 9.9 l 0.54 2.1 l 34.38 0 c 30.6 0 35.04 -0.18 40.68 -1.14 c 7.92 -1.38 10.5 -1.08 19.5 2.04 c 14.4 4.98 15.54 5.04 26.58 1.74 c 3.36 -1.02 6.48 -1.74 6.9 -1.56 c 0.48 0.18 1.68 2.1 2.7 4.26 c 2.16 4.5 1.8 4.26 15.66 11.76 c 4.74 2.58 9.72 5.76 11.1 7.08 c 3 2.82 5.58 4.62 7.56 5.22 c 0.84 0.24 2.88 1.74 4.62 3.36 c 1.68 1.62 3.6 2.94 4.26 2.94 c 0.6 0 1.86 0.78 2.76 1.74 c 0.9 0.96 2.76 2.16 4.14 2.76 c 1.38 0.54 7.26 3.3 13.02 6.06 c 8.46 4.08 11.94 5.4 17.82 6.84 c 8.1 1.92 8.82 2.22 10.98 4.5 c 2.76 2.94 -0.18 4.62 -10.14 5.76 c -6.18 0.78 -18.84 0.42 -22.26 -0.6 c -2.22 -0.66 -39.66 -4.92 -53.1 -6.12 c -8.28 -0.66 -36.96 -0.9 -39.9 -0.24 c -1.44 0.3 -1.8 0.12 -2.52 -1.32 c -0.66 -1.44 -1.2 -1.74 -3.48 -1.86 c -6.48 -0.48 -19.8 2.82 -32.52 8.04 c -8.46 3.48 -11.7 4.26 -20.4 5.04 c -8.16 0.72 -8.88 0.48 -8.88 -2.7 c 0 -3.84 -0.54 -3.84 -14.88 0 c -17.88 4.74 -16.92 4.14 -20.16 12 c -5.4 13.2 -9.06 20.76 -10.92 22.56 c -1.14 1.08 -2.04 2.28 -2.04 2.64 c 0 0.72 -0.78 1.86 -7.62 10.8 c -2.76 3.6 -4.98 6.78 -4.98 7.14 c 0 0.36 0.96 3.9 2.1 7.86 c 2.52 8.52 2.94 12.42 1.32 12.78 c -1.56 0.3 -2.64 -0.78 -5.88 -5.88 c -3.42 -5.4 -4.44 -6.6 -5.58 -6.6 c -0.48 0 -2.64 1.44 -4.74 3.24 l -3.84 3.3 l -0.36 7.74 c -0.6 12.42 -1.86 13.8 -5.82 6.18 c -1.38 -2.64 -2.82 -4.92 -3.24 -5.04 c -1.02 -0.42 -4.56 1.74 -4.56 2.7 c -0.06 0.42 -0.12 5.4 -0.24 10.98 c -0.12 5.64 -0.78 15.18 -1.5 21.3 c -1.44 13.44 -2.28 22.32 -2.82 30.3 c -0.36 6.3 -1.14 8.1 -3.36 8.1 c -1.5 0 -2.28 -2.28 -2.28 -6.6 c 0 -4.92 -2.58 -17.34 -5.76 -27.6 c -3.42 -10.98 -5.34 -15.72 -7.14 -17.4 c -1.32 -1.2 -2.7 -1.26 -2.7 0 c 0 0.24 -1.8 4.5 -3.96 9.42 c -2.22 4.86 -4.44 10.56 -5.04 12.6 c -1.38 4.62 -4.08 10.74 -5.22 11.64 c -0.66 0.6 -1.08 0.54 -1.8 -0.24 c -0.84 -0.78 -1.08 -2.76 -1.38 -9.54 c -0.18 -4.74 -0.54 -8.94 -0.78 -9.36 c -1.62 -2.52 -3.78 1.08 -5.76 9.66 c -0.72 2.82 -2.52 7.86 -4.02 11.22 c -2.4 5.1 -3.06 6 -4.08 5.88 c -1.2 -0.18 -1.32 -0.72 -1.86 -10.08 c -0.6 -9.72 -1.02 -11.76 -2.16 -11.04 c -0.3 0.18 -2.04 3.3 -3.84 6.9 c -1.98 3.96 -4.5 7.86 -6.36 9.9 c -1.86 2.1 -4.02 5.4 -5.58 8.82 c -1.44 3.06 -3 5.88 -3.6 6.36 c -2.46 2.04 -2.94 -1.56 -1.86 -15.48 c 0.36 -4.8 0.3 -6.78 -0.18 -6.6 c -1.44 0.54 -20.28 21.24 -23.76 26.16 c -2.1 2.88 -6.12 9.9 -9 15.54 c -3.72 7.32 -6.06 11.16 -8.22 13.5 l -3 3.24 l 0.24 -4.5 c 0.3 -4.38 0.66 -5.82 5.28 -18.3 c 1.98 -5.34 1.98 -5.58 2.22 -17.22 c 0.12 -7.26 0 -11.88 -0.36 -11.88 c -0.3 0 -2.58 1.32 -4.98 2.94 c -3.6 2.34 -4.8 3.6 -6.18 6.12 c -4.68 8.76 -8.16 13.98 -12.84 19.38 c -5.64 6.48 -8.52 8.4 -10.02 6.9 c -0.84 -0.84 -0.84 -1.86 0 -9.6 c 0.9 -8.1 0.78 -15.24 -0.24 -14.82 c -0.54 0.24 -10.92 11.52 -18.3 19.98 c -3.18 3.66 -7.44 9 -9.54 11.94 c -7.5 10.68 -9.12 12.66 -10.32 12.66 c -1.44 0 -1.44 -0.18 0.3 -10.2 c 1.44 -8.52 1.38 -13.2 -0.36 -25.8 c -1.32 -9.48 -1.68 -10.5 -4.02 -10.5 c -1.08 0 -2.88 0.24 -4.02 0.6 c -1.14 0.3 -5.58 0.84 -9.9 1.2 c -4.26 0.36 -8.7 0.78 -9.84 1.02 l -2.04 0.36 l 0.36 -3.84 c 0.24 -2.1 0.6 -5.28 0.78 -7.02 l 0.42 -3.12 l -2.4 0.84 c -4.5 1.56 -6.48 2.94 -11.46 7.8 c -5.46 5.28 -6.54 6.96 -8.46 13.2 c -0.96 3.18 -1.26 5.64 -1.26 11.1 l 0 7.02 l 3.48 6.9 c 1.92 3.78 3.78 7.98 4.14 9.3 c 0.66 2.76 0.06 5.04 -1.38 5.04 c -1.44 0 -6.3 -3.9 -11.64 -9.24 c -2.46 -2.52 -4.62 -4.56 -4.86 -4.56 c -1.08 0 -1.08 5.82 0.12 10.44 c 2.28 9 5.46 15.06 12.12 22.8 c 6.84 8.04 6.9 9.36 0.66 9.36 c -3.18 0 -4.68 -0.36 -7.14 -1.62 c -4.62 -2.28 -5.22 -1.86 -4.08 3.24 c 2.04 9.18 9.9 23.94 16.92 31.62 c 2.4 2.7 4.8 5.76 5.34 6.84 c 1.2 2.46 0.6 3.12 -3.9 4.62 c -1.74 0.54 -3.18 1.26 -3.18 1.56 c 0 0.3 1.32 3.48 2.94 7.02 c 1.62 3.54 3.66 8.16 4.56 10.32 c 0.9 2.16 3.42 7.8 5.7 12.6 c 2.22 4.8 4.74 10.62 5.58 13.02 c 0.9 2.4 2.28 5.7 3.12 7.32 c 2.7 5.34 3.36 11.64 3.9 35.76 c 0.54 21.48 0.9 26.76 3.3 42.06 c 1.74 10.8 0.54 15.6 -2.94 12.3 c -0.84 -0.78 -1.74 -2.04 -1.92 -2.7 c -0.48 -1.62 -3.12 -5.16 -3.9 -5.16 c -0.72 0 -0.72 17.82 0.06 22.8 c 0.36 2.16 1.14 5.82 1.8 8.1 c 3.06 10.92 3.78 14.7 3 15.6 c -1.26 1.5 -2.16 1.02 -4.08 -1.98 z m 29.88 -392.82 c 7.08 -1.56 13.14 -3 13.38 -3.3 c 0.24 -0.24 -1.38 -1.56 -3.66 -2.88 c -2.28 -1.38 -5.34 -3.48 -6.78 -4.68 c -3.36 -2.82 -11.76 -6.96 -13.74 -6.72 c -1.26 0.18 -1.62 0.72 -2.58 4.08 c -0.6 2.16 -1.26 6.84 -1.44 10.44 c -0.36 6.18 -0.3 6.48 0.78 6.18 c 0.6 -0.18 6.96 -1.62 14.04 -3.12 z m -82.32 -18.6 c -0.24 -5.28 -0.66 -8.04 -1.56 -10.38 c -1.74 -4.44 -4.08 -7.44 -5.7 -7.2 c -1.14 0.18 -1.38 0.72 -1.86 4.68 c -0.72 6.36 0.24 10.44 3.66 15.48 c 1.5 2.22 3.3 4.68 4.02 5.4 c 1.14 1.32 1.26 1.32 1.5 0.3 c 0.12 -0.6 0.06 -4.32 -0.06 -8.28 z"/>
</g>
</svg>
